<?xml version="1.0" encoding="utf-8"?>
<!-- Generator: Adobe Illustrator 27.5.0, SVG Export Plug-In . SVG Version: 6.00 Build 0)  -->
<svg version="1.1" xmlns="http://www.w3.org/2000/svg" xmlns:xlink="http://www.w3.org/1999/xlink" x="0px" y="0px"
	 viewBox="0 0 750 500" style="enable-background:new 0 0 750 500;" xml:space="preserve">
<g id="BACKGROUND">
</g>
<g id="OBJECTS">
	<path style="opacity:0.26;fill:#6C79B5;" d="M750,123.575v281.59c-10.4,13.8-23.29,25.52-38.54,33.59
		c-34.39,18.19-75.49,15.9-114.37,14.37c-179.03-7.03-361.62,11.71-535.08-33.18c-19.47-5.04-46.93-11.54-60.31-28.12
		c-0.61-0.75-1.17-1.54-1.7-2.36v-80c9.91-29.17,29.62-55.35,54.15-73.33c47.42-34.78,109-44.08,167.81-43.53
		c41.56,0.4,83.9,5.07,124.11-5.42c85.57-22.33,145.37-108.84,232.67-122.97c46.28-7.5,93.87,7.13,134.49,30.55
		C726.78,102.585,739.98,111.575,750,123.575z"/>
	<rect y="374.917" style="fill:#44529E;" width="750" height="125.083"/>
	<rect y="392.735" style="fill:#6C79B5;" width="750" height="107.265"/>
	<ellipse style="fill:#5667B0;" cx="374.848" cy="411.609" rx="197.592" ry="24.895"/>
	<g>
		
			<rect x="399.642" y="146.138" style="fill:#20ACFF;stroke:#D6D6D6;stroke-width:2.5874;stroke-miterlimit:10;" width="21.273" height="34.446"/>
		
			<rect x="423.546" y="146.138" style="fill:#AE31D3;stroke:#D6D6D6;stroke-width:2.5874;stroke-miterlimit:10;" width="21.273" height="34.446"/>
		
			<rect x="447.451" y="146.138" style="fill:#E8E600;stroke:#D6D6D6;stroke-width:2.5874;stroke-miterlimit:10;" width="21.273" height="34.446"/>
		
			<rect x="471.363" y="146.138" style="stroke:#D6D6D6;stroke-width:2.5874;stroke-miterlimit:10;" width="21.273" height="34.446"/>
		
			<text transform="matrix(1 0 0 1 406.0527 169.7572)" style="fill:#FFFFFF; font-family:'BebasNeue-Regular'; font-size:19.3375px;">C</text>
		
			<text transform="matrix(1 0 0 1 428.8066 169.7572)" style="fill:#FFFFFF; font-family:'BebasNeue-Regular'; font-size:19.3375px; letter-spacing:8102;">M</text>
		<g>
			<text transform="matrix(1 0 0 1 454.1289 169.7572)" style="font-family:'BebasNeue-Regular'; font-size:19.3375px;">Y</text>
		</g>
		
			<text transform="matrix(1 0 0 1 478.457 169.7572)" style="fill:#FFFFFF; font-family:'BebasNeue-Regular'; font-size:19.3375px;">K</text>
		<rect x="234.354" y="264.657" style="fill:#8085CF;" width="26.019" height="105.372"/>
		<rect x="255.172" y="264.657" style="fill:#44529E;" width="246.836" height="54.85"/>
		<rect x="494.782" y="264.657" style="fill:#8085CF;" width="21.149" height="105.372"/>
		<path style="fill:#4F62B8;" d="M563.569,209.748v69.02H177.262v-69.02c0-16.343,13.244-29.587,29.586-29.587h327.122
			c11.563,0,21.592,6.633,26.453,16.309C562.436,200.462,563.569,204.968,563.569,209.748z"/>
		<path style="fill:#4254A6;" d="M563.569,213.305v65.464H177.262v-65.464c0-15.501,13.244-28.062,29.586-28.062h327.122
			c11.563,0,21.592,6.292,26.453,15.468C562.436,204.496,563.569,208.77,563.569,213.305z"/>
		<path style="opacity:0.36;fill:#4B537D;" d="M563.569,209.748v69.02H177.262c0,0,7.308-71.57,68.254-81.852
			c53.169-8.966,262.299-2.287,314.908-0.446C562.436,200.462,563.569,204.968,563.569,209.748z"/>
		<g>
			<rect x="271.829" y="218.511" style="fill:#8B90E0;" width="206.018" height="21.351"/>
			<rect x="271.829" y="237.138" style="fill:#3F3E4D;" width="206.018" height="21.049"/>
			<rect x="271.829" y="218.511" style="fill:#3F3E4D;" width="206.018" height="5.407"/>
			<rect x="271.829" y="229.296" style="fill:#3F3E4D;" width="206.018" height="2.703"/>
		</g>
		<polygon style="fill:#8B90E0;" points="177.257,327.995 207.489,314.775 541.644,314.775 563.563,327.995 		"/>
		<rect x="177.262" y="255.689" style="fill:#4D62C2;" width="386.307" height="23.079"/>
		<g>
			<path style="fill:#FFFFFF;" d="M535.891,247.218h-23.501c-5.734,0-10.382-4.648-10.382-10.382v-37.273
				c0-5.734,4.648-10.382,10.382-10.382h23.501c5.734,0,10.382,4.648,10.382,10.382v37.273
				C546.272,242.57,541.624,247.218,535.891,247.218z"/>
			<path style="fill:#3A4161;" d="M537.881,206.731h-27.482c-1.298,0-2.351-1.052-2.351-2.351v-5.113
				c0-1.298,1.052-2.351,2.351-2.351h27.482c1.298,0,2.351,1.053,2.351,2.351v5.113
				C540.232,205.679,539.179,206.731,537.881,206.731z"/>
			<g>
				<path style="fill:#3A4161;" d="M512.977,213.99c0,1.485-1.204,2.689-2.689,2.689s-2.689-1.204-2.689-2.689
					c0-1.485,1.204-2.689,2.689-2.689S512.977,212.505,512.977,213.99z"/>
				<path style="fill:#3A4161;" d="M522.212,213.99c0,1.485-1.204,2.689-2.689,2.689s-2.689-1.204-2.689-2.689
					c0-1.485,1.204-2.689,2.689-2.689S522.212,212.505,522.212,213.99z"/>
				<circle style="fill:#3A4161;" cx="528.757" cy="213.99" r="2.689"/>
				<circle style="fill:#3A4161;" cx="537.992" cy="213.99" r="2.689"/>
			</g>
			<g>
				<path style="fill:#3A4161;" d="M512.977,222.566c0,1.485-1.204,2.689-2.689,2.689s-2.689-1.204-2.689-2.689
					c0-1.485,1.204-2.689,2.689-2.689S512.977,221.081,512.977,222.566z"/>
				<path style="fill:#3A4161;" d="M522.212,222.566c0,1.485-1.204,2.689-2.689,2.689s-2.689-1.204-2.689-2.689
					c0-1.485,1.204-2.689,2.689-2.689S522.212,221.081,522.212,222.566z"/>
				<circle style="fill:#3A4161;" cx="528.757" cy="222.566" r="2.689"/>
				<circle style="fill:#3A4161;" cx="537.992" cy="222.566" r="2.689"/>
			</g>
			<g>
				<path style="fill:#3A4161;" d="M512.977,231.142c0,1.485-1.204,2.689-2.689,2.689s-2.689-1.204-2.689-2.689
					s1.204-2.689,2.689-2.689S512.977,229.656,512.977,231.142z"/>
				<path style="fill:#3A4161;" d="M522.212,231.142c0,1.485-1.204,2.689-2.689,2.689s-2.689-1.204-2.689-2.689
					s1.204-2.689,2.689-2.689S522.212,229.656,522.212,231.142z"/>
				<circle style="fill:#3A4161;" cx="528.757" cy="231.142" r="2.689"/>
				<circle style="fill:#3A4161;" cx="537.992" cy="231.142" r="2.689"/>
			</g>
			<path style="fill:#3A4161;" d="M515.471,239.861h-6.061c-0.752,0-1.362-0.61-1.362-1.362l0,0c0-0.752,0.61-1.362,1.362-1.362
				h6.061c0.752,0,1.362,0.61,1.362,1.362l0,0C516.833,239.252,516.223,239.861,515.471,239.861z"/>
			<path style="fill:#3A4161;" d="M538.334,239.861h-6.061c-0.752,0-1.362-0.61-1.362-1.362l0,0c0-0.752,0.61-1.362,1.362-1.362
				h6.061c0.752,0,1.362,0.61,1.362,1.362l0,0C539.695,239.252,539.086,239.861,538.334,239.861z"/>
		</g>
		<g>
			<g>
				<circle style="fill:#E7007C;" cx="524.14" cy="267.229" r="7.23"/>
				<circle style="fill:#EB007E;" cx="524.14" cy="267.229" r="4.617"/>
			</g>
		</g>
		<polygon style="fill:#8588B3;" points="266.102,342.179 271.832,327.995 271.832,342.179 		"/>
		<polygon style="fill:#8588B3;" points="483.518,342.179 477.788,327.995 477.788,342.179 		"/>
		<g>
			<g>
				<g>
					<g>
						<rect x="497.725" y="385.722" style="fill:#44529E;" width="23.891" height="14.026"/>
						<polygon style="fill:#3A4161;" points="521.616,399.748 524.575,407.434 497.725,407.434 497.725,399.748 						"/>
					</g>
				</g>
				<polygon style="fill:#2F354F;" points="497.725,407.434 492.637,403.591 492.637,385.722 497.725,385.722 				"/>
			</g>
			<g>
				<g>
					<g>
						<rect x="228.7" y="385.722" style="fill:#44529E;" width="23.891" height="14.026"/>
						<polygon style="fill:#3A4161;" points="228.7,399.748 225.741,407.434 252.591,407.434 252.591,399.748 						"/>
					</g>
				</g>
				<polygon style="fill:#2F354F;" points="252.591,407.434 257.68,403.591 257.68,385.722 252.591,385.722 				"/>
			</g>
			<g>
				<rect x="177.262" y="327.992" style="fill:#9B9BE0;" width="386.307" height="57.732"/>
				<path style="opacity:0.37;fill:#8588B3;" d="M563.569,327.992v57.732c-16.309,0.206-32.034,0.206-47.176,0
					c-245.727-3.282-339.13-57.732-339.13-57.732H563.569z"/>
				<g>
					<rect x="186.684" y="367.703" style="fill:#44529E;" width="370.559" height="4.259"/>
					<rect x="186.684" y="360.173" style="fill:#44529E;" width="370.559" height="4.259"/>
					<rect x="186.684" y="352.644" style="fill:#44529E;" width="370.559" height="4.259"/>
					<rect x="186.684" y="345.114" style="fill:#44529E;" width="370.559" height="4.259"/>
				</g>
				<g>
					<rect x="477.788" y="327.995" style="fill:#44529E;" width="36.737" height="10.132"/>
					<rect x="510.287" y="327.995" style="fill:#EB007E;" width="21.082" height="10.132"/>
				</g>
				<g>
					<rect x="235.095" y="327.995" style="fill:#44529E;" width="36.737" height="10.132"/>
					<rect x="215.2" y="327.995" style="fill:#EB007E;" width="21.082" height="10.132"/>
				</g>
			</g>
		</g>
		<g>
			<path style="opacity:0.4;fill:#DFDFE6;" d="M267.751,440.873c0,5.137-0.167,9.834-0.428,13.449
				c-0.333,4.447-0.82,7.266-1.367,7.266s-1.035-2.818-1.356-7.266c-0.262-3.615-0.428-8.312-0.428-13.449
				c0-0.606,0-1.213,0.012-1.796c0.071-10.607,0.832-18.919,1.772-18.919s1.712,8.312,1.784,18.919
				C267.751,439.66,267.751,440.267,267.751,440.873z"/>
			<path style="opacity:0.4;fill:#DFDFE6;" d="M484.871,440.873c0,5.137-0.166,9.834-0.428,13.449
				c-0.321,4.447-0.809,7.266-1.356,7.266c-0.547,0-1.034-2.818-1.367-7.266c-0.262-3.615-0.428-8.312-0.428-13.449
				c0-0.606,0-1.213,0.012-1.796c0.071-10.607,0.844-18.919,1.784-18.919c0.94,0,1.7,8.312,1.772,18.919
				C484.871,439.66,484.871,440.267,484.871,440.873z"/>
			<rect x="265.955" y="420.159" style="fill:#F0F0F0;" width="217.132" height="41.429"/>
		</g>
		<g>
			<g>
				<g>
					<rect x="271.83" y="250.577" style="fill:#F0F0F0;" width="206.02" height="211.01"/>
					<path style="opacity:0.21;fill:#C8C8CF;" d="M477.85,250.577v25.49c-51.61,77.8-153.42,111.74-206.02,124.59v-40.3
						c74.93-28.34,104.34-85.94,113.62-109.78H477.85z"/>
					<g>
						<path style="fill:none;stroke:#C40069;stroke-width:3;stroke-linecap:round;stroke-linejoin:round;stroke-miterlimit:10;" d="
							M303.915,396.578c0,0,87.225-41.37,117.001-111.371"/>
						<path style="fill:#4254A6;" d="M323.349,385.878c0,0-21.436-24.946,0-47.751C323.349,338.127,346.484,360.63,323.349,385.878z
							"/>
						<path style="fill:#EB007E;" d="M341.711,374.177c0,0,27.494-18.053,47.355,6.137
							C389.066,380.314,363.776,400.365,341.711,374.177z"/>
						<path style="fill:#4254A6;" d="M402.029,317.884c0,0,27.494-18.053,47.355,6.137
							C449.384,324.021,424.094,344.073,402.029,317.884z"/>
						<path style="fill:#EB007E;" d="M416.626,293.245c0,0-1.472-32.858,29.469-37.573
							C446.096,255.673,450.412,287.657,416.626,293.245z"/>
						<path style="fill:#EB007E;" d="M370.878,351.857c0,0-20.704-25.557,1.385-47.731
							C372.263,304.126,394.736,327.291,370.878,351.857z"/>
					</g>
				</g>
				<rect x="271.829" y="250.858" style="opacity:0.4;fill:#C8C8CF;" width="206.018" height="9.141"/>
				<rect x="271.832" y="401.539" style="opacity:0.4;fill:#DFDFE6;" width="206.02" height="20.14"/>
			</g>
			<g>
				<rect x="271.829" y="334.85" style="opacity:0.4;fill:#C8C8CF;" width="206.018" height="14.658"/>
				<g>
					<rect x="266.434" y="342.173" style="fill:#9B9BE0;" width="216.495" height="14.399"/>
					<path style="fill:#9B9BE0;" d="M484.873,349.378c0,0.709-0.034,1.395-0.103,2.047c-0.091,0.938-0.24,1.784-0.435,2.516
						c-0.354,1.281-0.846,2.196-1.407,2.505c-0.137,0.08-0.286,0.126-0.435,0.126c-0.743,0-1.407-1.029-1.841-2.63
						c-0.194-0.732-0.343-1.578-0.435-2.516c-0.069-0.652-0.103-1.338-0.103-2.047c0-3.98,1.064-7.205,2.379-7.205
						c0.149,0,0.297,0.046,0.435,0.126C484.038,342.917,484.873,345.844,484.873,349.378z"/>
					<path style="fill:#9B9BE0;" d="M268.481,349.378c0,0.709-0.034,1.407-0.092,2.047c-0.263,2.665-1.018,4.678-1.956,5.066
						c-0.103,0.057-0.217,0.08-0.332,0.08c-1.075,0-1.99-2.173-2.287-5.147c-0.057-0.64-0.092-1.338-0.092-2.047
						c0-3.98,1.064-7.205,2.379-7.205c0.114,0,0.229,0.023,0.332,0.08C267.589,342.733,268.481,345.741,268.481,349.378z"/>
				</g>
				<path style="opacity:0.48;fill:#8588B3;" d="M484.77,351.425c-0.091,0.938-0.24,1.784-0.435,2.516
					c-0.354,1.281-0.846,2.196-1.407,2.505v0.126H266.434v-0.08c-0.103,0.057-0.217,0.08-0.332,0.08
					c-1.075,0-1.99-2.173-2.287-5.147H484.77z"/>
			</g>
		</g>
	</g>
	<g>
		<g>
			<path style="fill:#CC006E;" d="M246.491,157.025c0,0-53.568,11.363-54.178,15.947c-0.61,4.584,6.707,12.968,6.707,12.968
				l63.885-5.783l14.137-23.132H246.491z"/>
			<path style="fill:#CC006E;" d="M192.286,173.781l13.554,70.795h7.002c0,0,6.348-57.035,0-65.453
				C206.495,170.704,192.286,173.781,192.286,173.781z"/>
			<polygon style="fill:#91004E;" points="205.841,244.576 189.469,253.192 212.66,253.192 212.91,244.576 			"/>
		</g>
		<ellipse style="fill:#4254A6;" cx="252.933" cy="67.459" rx="5.909" ry="5.166"/>
		<polygon style="fill:#FCB798;" points="261.77,85.503 259.981,90.075 264.175,91.853 272.228,90.075 271.96,85.684 268.712,83.54 
					"/>
		<polygon style="fill:#FCB798;" points="240.017,114.242 233.871,130.088 246.491,130.088 250.482,112.767 		"/>
		<g>
			<g>
				<path style="fill:#FCB798;" d="M250.5,59.436c0,0-0.686,21.459,6.223,23.688c6.91,2.228,12.225-4.924,12.09-10.205
					s-3.415-13.818-8.105-14.819C256.019,57.097,250.5,59.436,250.5,59.436z"/>
				<g>
					<path style="fill:#4254A6;" d="M259.314,71.598c0.091,0.557-0.145,1.06-0.526,1.122c-0.382,0.063-0.766-0.339-0.857-0.896
						c-0.091-0.557,0.144-1.06,0.526-1.122S259.223,71.04,259.314,71.598z"/>
					<path style="fill:#4254A6;" d="M253.774,72.505c0.091,0.557-0.144,1.06-0.526,1.122c-0.382,0.063-0.766-0.339-0.857-0.896
						c-0.091-0.557,0.144-1.06,0.526-1.122C253.3,71.546,253.683,71.947,253.774,72.505z"/>
					
						<path style="fill:none;stroke:#4D5681;stroke-width:0.5;stroke-linecap:round;stroke-linejoin:round;stroke-miterlimit:10;" d="
						M256.776,77.938c0,0,2.751,0.662,4.279-2.394"/>
					
						<path style="fill:none;stroke:#4D5681;stroke-width:0.5;stroke-linecap:round;stroke-linejoin:round;stroke-miterlimit:10;" d="
						M254.331,72.618c0,0,1.07,2.009,0.611,2.671c-0.458,0.662-0.153,1.487,0.917,1.482"/>
				</g>
			</g>
			<path style="fill:#FCB798;" d="M268.814,72.919c0,0-0.439,10.717,3.897,14.112c0,0-9.232,2.229-11.18,0.425
				c0,0,0.827-4.763,0.091-6.289C261.621,81.166,264.665,71.962,268.814,72.919z"/>
			<path style="fill:#4254A6;" d="M279.939,88.16c0,0,10.864,2.663,14.106,7.239c0,0,6.053,19.767,7.003,22.024l-15.059,1.791
				l-2.292-11.391"/>
			<path style="fill:#4254A6;" d="M259.793,85.985l-15.412,7.937l-6.509,21.231c0,0,6.048,5.731,11.477,6.475l5.544-20.216
				L259.793,85.985z"/>
			<path style="fill:#4254A6;" d="M289.518,110.916c0,0,2.929,40.818,2.982,46.109c0,0-23.776,9.444-46.009,0l1.77-52.771
				l4.882-9.484l5.064-7.776l2.132,1.522c2.041,1.457,4.574,2.052,7.05,1.655l12.55-2.012l9.578,10.688V110.916z"/>
			<path style="fill:#FCB798;" d="M286.72,119.035l1.961,19.29l-30.991,8.505l5.216,6.987l31.072-4.079
				c4.099-0.907,6.356-1.953,6.081-5.319l-2.175-26.62L286.72,119.035z"/>
			<path style="fill:#EB007E;" d="M261.674,97.011c0,0,3.879-7.392,10.286-11.328l7.979,2.476l-9.133,3.693v2.795L261.674,97.011z"
				/>
		</g>
		<path style="opacity:0.22;fill:#EB007E;" d="M213.016,164.785c0,0,48.706,6.455,59.212,5.154
			c10.506-1.301,6.657-10.886,6.657-10.886l-10.276,4.823l-45.301-5.649L213.016,164.785z"/>
		<polygon style="fill:#EB007E;" points="261.77,85.503 261.674,97.011 258.207,92.676 259.988,91.257 257.939,88.16 
			259.854,85.684 		"/>
		<path style="fill:#FCB798;" d="M261.77,85.503l-0.096,11.509c0,0,3.157-5.124,5.64-7.561l0.326-3.767l-2.344-1.053L261.77,85.503z
			"/>
		<g>
			<ellipse style="fill:#4254A6;" cx="270.807" cy="71.717" rx="5.909" ry="5.166"/>
			<path style="fill:#4254A6;" d="M278.137,63.566c0,2.853-2.645,5.166-5.909,5.166c-3.263,0-5.909-2.313-5.909-5.166
				c0-2.853,2.645-5.166,5.909-5.166C275.492,58.4,278.137,60.713,278.137,63.566z"/>
			<path style="fill:#4254A6;" d="M278.137,56.373c0,2.853-2.645,5.166-5.909,5.166c-3.263,0-5.909-2.313-5.909-5.166
				s2.645-5.166,5.909-5.166C275.492,51.207,278.137,53.52,278.137,56.373z"/>
			<ellipse style="fill:#4254A6;" cx="267.641" cy="65.529" rx="5.909" ry="5.166"/>
			<ellipse style="fill:#4254A6;" cx="253.647" cy="51.96" rx="5.909" ry="5.166"/>
			<path style="fill:#4254A6;" d="M253.468,55.197c0,2.853-2.645,5.166-5.909,5.166c-3.263,0-5.909-2.313-5.909-5.166
				c0-2.853,2.645-5.166,5.909-5.166C250.822,50.031,253.468,52.344,253.468,55.197z"/>
			<path style="fill:#4254A6;" d="M267.439,57.126c0,2.853-2.645,5.166-5.909,5.166c-3.263,0-5.909-2.313-5.909-5.166
				c0-2.853,2.645-5.166,5.909-5.166C264.794,51.96,267.439,54.273,267.439,57.126z"/>
			<path style="fill:#4254A6;" d="M253.468,61.914c0,2.853-2.645,5.166-5.909,5.166c-3.263,0-5.909-2.313-5.909-5.166
				s2.645-5.166,5.909-5.166C250.822,56.748,253.468,59.061,253.468,61.914z"/>
			<ellipse style="fill:#4254A6;" cx="255.622" cy="61.539" rx="5.909" ry="5.166"/>
			<ellipse style="fill:#4254A6;" cx="265.558" cy="64.784" rx="5.909" ry="5.166"/>
			<path style="fill:#4254A6;" d="M268.814,51.582c0,2.853-2.645,5.166-5.909,5.166c-3.263,0-5.909-2.313-5.909-5.166
				s2.645-5.166,5.909-5.166C266.169,46.416,268.814,48.729,268.814,51.582z"/>
			<path style="fill:#4254A6;" d="M274.283,52.805c0,2.853-2.645,5.166-5.909,5.166c-3.263,0-5.909-2.313-5.909-5.166
				s2.645-5.166,5.909-5.166C271.638,47.639,274.283,49.951,274.283,52.805z"/>
			<ellipse style="fill:#4254A6;" cx="268.814" cy="59.053" rx="5.909" ry="5.166"/>
		</g>
		<path style="fill:#FCB798;" d="M263.633,71.096c0,2.218,1.107,4.016,2.472,4.016s2.472-1.798,2.472-4.016
			s-1.107-4.016-2.472-4.016S263.633,68.878,263.633,71.096z"/>
		<g>
			<path style="fill:#EB007E;" d="M276.589,157.025c0,0-53.568,11.363-54.178,15.947c-0.61,4.584,6.708,12.968,6.708,12.968
				l48.898-4.426c8.487-0.768,14.485-7.945,14.485-16.466l-0.002-8.022H276.589z"/>
			<path style="fill:#EB007E;" d="M222.411,172.973l10.417,71.846l8.141,0.063c0,0,8.139-56.649,2.181-64.719
				C237.193,172.091,222.411,172.973,222.411,172.973z"/>
			<polygon style="fill:#91004E;" points="232.829,244.818 217.53,253.434 240.72,253.434 240.97,244.818 			"/>
		</g>
		<g>
			<g>
				<polygon style="fill:#3F3E4D;" points="267.264,166.491 278.885,159.053 219.295,159.053 213.016,164.785 				"/>
				<polygon style="fill:#4F62B8;" points="205.982,123.442 259.981,121.905 267.264,166.491 213.016,164.785 				"/>
			</g>
			<polygon style="fill:#5B6DC2;" points="259.981,121.905 213.016,164.785 267.264,166.491 			"/>
			<polygon style="fill:#3B4263;" points="259.981,121.905 261.674,121.905 268.61,163.876 278.885,159.053 278.885,161.031 
				267.264,166.491 			"/>
		</g>
	</g>
	<g>
		<g>
			<rect x="591.385" y="146.865" style="fill:#FFFFFF;" width="26.4" height="217.13"/>
			<rect x="604.586" y="146.865" style="opacity:0.43;fill:#D1D1D9;" width="13.2" height="213.31"/>
			<rect x="628.274" y="146.862" style="fill:#FFFFFF;" width="26.407" height="217.132"/>
			<rect x="641.478" y="146.865" style="opacity:0.43;fill:#D1D1D9;" width="13.2" height="213.31"/>
			<rect x="667.472" y="146.862" style="fill:#FFFFFF;" width="26.407" height="217.132"/>
			<rect x="680.675" y="146.865" style="opacity:0.43;fill:#D1D1D9;" width="13.2" height="213.31"/>
			<rect x="707.982" y="146.862" style="fill:#FFFFFF;" width="26.406" height="217.132"/>
			<rect x="721.185" y="146.865" style="opacity:0.43;fill:#D1D1D9;" width="13.2" height="213.31"/>
			<path style="fill:#CCCCCC;" d="M604.586,145.073c3.274,0,6.268,0.167,8.572,0.428c2.835,0.321,4.631,0.809,4.631,1.356
				c0,0.547-1.796,1.035-4.631,1.367c-2.304,0.262-5.298,0.428-8.572,0.428c-0.387,0-0.773,0-1.144-0.012
				c-6.761-0.071-12.059-0.844-12.059-1.784c0-0.939,5.298-1.7,12.059-1.772C603.813,145.073,604.199,145.073,604.586,145.073z"/>
			<path style="fill:#CCCCCC;" d="M641.478,145.073c3.274,0,6.268,0.167,8.572,0.428c2.835,0.321,4.631,0.809,4.631,1.356
				c0,0.547-1.796,1.035-4.631,1.367c-2.304,0.262-5.298,0.428-8.572,0.428c-0.387,0-0.773,0-1.145-0.012
				c-6.761-0.071-12.059-0.844-12.059-1.784c0-0.939,5.298-1.7,12.059-1.772C640.704,145.073,641.091,145.073,641.478,145.073z"/>
			<path style="fill:#CCCCCC;" d="M680.675,145.073c3.274,0,6.268,0.167,8.572,0.428c2.835,0.321,4.631,0.809,4.631,1.356
				c0,0.547-1.796,1.035-4.631,1.367c-2.304,0.262-5.298,0.428-8.572,0.428c-0.386,0-0.773,0-1.144-0.012
				c-6.761-0.071-12.059-0.844-12.059-1.784c0-0.939,5.298-1.7,12.059-1.772C679.902,145.073,680.289,145.073,680.675,145.073z"/>
			<path style="fill:#CCCCCC;" d="M721.185,145.073c3.274,0,6.268,0.167,8.572,0.428c2.835,0.321,4.631,0.809,4.631,1.356
				c0,0.547-1.796,1.035-4.631,1.367c-2.304,0.262-5.298,0.428-8.572,0.428c-0.386,0-0.773,0-1.144-0.012
				c-6.761-0.071-12.059-0.844-12.059-1.784c0-0.939,5.298-1.7,12.059-1.772C720.412,145.073,720.798,145.073,721.185,145.073z"/>
		</g>
		<path style="fill:#4254A6;" d="M750,155.205v14.55H579.72c-4.02,0-7.28-3.26-7.28-7.28c0-2,0.82-3.82,2.13-5.14
			c1.32-1.32,3.14-2.13,5.15-2.13H750z"/>
		<path style="fill:#4254A6;" d="M750,349.295v14.55H579.72c-4.02,0-7.28-3.25-7.28-7.27c0-2.01,0.82-3.83,2.13-5.15
			c1.32-1.31,3.14-2.13,5.15-2.13H750z"/>
	</g>
	<g>
		<rect x="52.481" y="46.736" style="fill:#4254A6;" width="75.65" height="89.224"/>
		<rect x="56.991" y="52.055" style="fill:#FFFFFF;" width="66.63" height="78.585"/>
		<circle style="opacity:0.26;fill:#6C79B5;" cx="90.306" cy="87.368" r="27.169"/>
		<g>
			<path style="fill:#4254A6;" d="M99.975,93.972c0,0-0.968,0.319-2.584,0.638c-3.385,0.664-9.622,1.322-15.818-0.958
				c-0.35-0.127-0.694-0.264-1.044-0.41c0,0-8.639-2.822-5.664-14.668c0,0,4.98,3.628,7.367,10.726
				c-0.375-1.16-3.592-11.603,1.343-15.499c0,0,5.811,2.305,5.791,12.307c0.426-4.418,1.682-11.658,5.355-13.041
				c0,0,3.79,4.742,3.461,14.035c0.573-3.694,2.366-9.282,7.95-9.657C106.13,77.445,108.238,90.329,99.975,93.972z"/>
			<path style="fill:#EB007E;" d="M75.72,92.804l4.635,26.8c0,1.597,4.784,2.892,10.686,2.892c5.902,0,10.686-1.295,10.686-2.892
				l4.404-26.085L75.72,92.804z"/>
		</g>
	</g>
	<g>
		<g>
			<g>
				<path style="fill:#44529E;" d="M85.586,379.767c-0.684-0.096-1.245-0.64-1.331-1.358c-5.657-46.737-0.411-92.816,15.594-136.957
					c0.294-0.81,1.188-1.229,1.999-0.935c0.81,0.294,1.229,1.189,0.935,1.999c-15.836,43.676-21.028,89.271-15.43,135.518
					c0.104,0.855-0.506,1.633-1.362,1.737C85.853,379.788,85.717,379.786,85.586,379.767z"/>
			</g>
			<g>
				<g>
					<path style="fill:#44529E;" d="M85.702,374.766c12.886,0.533,26.322-16.594,23.662-18.71
						c-1.594-1.268-24.399,6.171-23.879,17.145L85.702,374.766z"/>
				</g>
				<g>
					<path style="fill:#44529E;" d="M84.529,353.656c12.655,1.305,25.153-15.284,22.8-17.371
						c-1.483-1.315-22.662,5.491-22.891,15.804L84.529,353.656z"/>
				</g>
				<g>
					<path style="fill:#44529E;" d="M84.023,331.479c12.477,1.392,23.955-14.037,21.838-16.165
						c-1.328-1.334-21.039,5.065-21.804,14.603L84.023,331.479z"/>
				</g>
				<g>
					<path style="fill:#44529E;" d="M85.972,310.026c12.009,2.133,22.607-13.052,20.787-15.097
						c-1.213-1.362-19.298,4.828-20.629,13.545L85.972,310.026z"/>
				</g>
				<g>
					<path style="fill:#44529E;" d="M89.571,288.116c11.287,2.687,21.16-12.341,19.661-14.169
						c-1.032-1.259-17.525,4.602-19.378,12.634L89.571,288.116z"/>
				</g>
				<g>
					<path style="fill:#44529E;" d="M94.734,266.128c10.48,3.352,19.694-11.714,18.471-13.385
						c-0.901-1.231-15.885,4.806-18.064,11.872L94.734,266.128z"/>
				</g>
				<g>
					<path style="fill:#44529E;" d="M99.708,245.279c10.98-0.531,12.573-17.801,10.719-18.933
						c-1.366-0.834-15.264,8.605-11.279,17.588L99.708,245.279z"/>
				</g>
				<g>
					<path style="fill:#44529E;" d="M85.016,375.542c-14.013,2.302-29.633-15.401-27.141-17.618
						c1.333-1.186,25.015,5.02,26.961,16.025L85.016,375.542z"/>
				</g>
				<g>
					<path style="fill:#44529E;" d="M83.562,354.494c-13.867,1.633-25.9-16.982-23.37-18.897
						c1.444-1.093,22.408,6.863,23.318,17.306L83.562,354.494z"/>
				</g>
				<g>
					<path style="fill:#44529E;" d="M82.826,331.888c-13.626,1.502-21.895-18.379-19.515-19.907
						c1.5-0.963,19.525,8.602,19.59,18.325L82.826,331.888z"/>
				</g>
				<g>
					<path style="fill:#44529E;" d="M85.157,310.043c-13.271,0.052-17.976-19.379-15.587-20.646
						c1.523-0.808,16.528,10.124,15.788,19.077L85.157,310.043z"/>
				</g>
				<g>
					<path style="fill:#44529E;" d="M88.272,287.58c-12.737-0.606-13.868-20.112-11.598-21.11
						c1.611-0.708,13.305,11.568,11.924,19.561L88.272,287.58z"/>
				</g>
				<g>
					<path style="fill:#44529E;" d="M93.36,266.021c-12.044-1.286-9.52-20.651-7.561-21.295c1.45-0.477,9.885,12.66,8.012,19.772
						L93.36,266.021z"/>
				</g>
			</g>
		</g>
	</g>
	<g>
		<path style="opacity:0.64;fill:#A3A3BF;" d="M681.82,50.031H572.106c-14.268,0-25.833-11.566-25.833-25.833V0h161.381v24.197
			C707.654,38.465,696.087,50.031,681.82,50.031z"/>
		<path style="fill:#EB007E;" d="M678.513,46.625H644.58c-1.096,0-1.984-0.888-1.984-1.984v-1.604c0-1.096,0.888-1.984,1.984-1.984
			h33.933c1.096,0,1.984,0.888,1.984,1.984v1.604C680.497,45.737,679.609,46.625,678.513,46.625z"/>
		<path style="fill:#EB007E;" d="M570.31,13.799h-11.248c-1.176,0-2.13-0.953-2.13-2.13V9.27c0-1.176,0.953-2.129,2.13-2.129h11.248
			c1.176,0,2.13,0.953,2.13,2.129v2.399C572.44,12.846,571.487,13.799,570.31,13.799z"/>
		<g>
			<g>
				<path style="fill:#3A4161;" d="M558.538,19.407c0,0,35.072,2.448,67.668,2.448c32.595,0,67.668-2.448,67.668-2.448H558.538z"/>
				<path style="opacity:0.26;fill:#405099;" d="M693.874,19.407H558.538c-0.887,0-1.606-0.719-1.606-1.606l0,0
					c0-0.887,0.719-1.606,1.606-1.606h135.336c0.887,0,1.606,0.719,1.606,1.606l0,0C695.48,18.688,694.761,19.407,693.874,19.407z"
					/>
			</g>
			<g>
				<path style="fill:#3A4161;" d="M558.538,28.148c0,0,35.072,2.448,67.668,2.448c32.595,0,67.668-2.448,67.668-2.448H558.538z"/>
				<path style="opacity:0.26;fill:#405099;" d="M693.874,28.148H558.538c-0.887,0-1.606-0.719-1.606-1.606l0,0
					c0-0.887,0.719-1.606,1.606-1.606h135.336c0.887,0,1.606,0.719,1.606,1.606l0,0C695.48,27.429,694.761,28.148,693.874,28.148z"
					/>
			</g>
			<g>
				<path style="fill:#3A4161;" d="M558.538,36.795c0,0,35.072,2.448,67.668,2.448c32.595,0,67.668-2.448,67.668-2.448H558.538z"/>
				<path style="opacity:0.26;fill:#405099;" d="M693.874,36.889H558.538c-0.887,0-1.606-0.719-1.606-1.606l0,0
					c0-0.887,0.719-1.606,1.606-1.606h135.336c0.887,0,1.606,0.719,1.606,1.606l0,0C695.48,36.17,694.761,36.889,693.874,36.889z"/>
			</g>
		</g>
	</g>
</g>
</svg>
