<?xml version="1.0" encoding="utf-8"?>
<!-- Generator: Adobe Illustrator 27.5.0, SVG Export Plug-In . SVG Version: 6.00 Build 0)  -->
<svg version="1.1" xmlns="http://www.w3.org/2000/svg" xmlns:xlink="http://www.w3.org/1999/xlink" x="0px" y="0px"
	 viewBox="0 0 500 500" style="enable-background:new 0 0 500 500;" xml:space="preserve">
<g id="BACKGROUND">
	<g>
		<path style="opacity:0.27;fill:#FDB126;" d="M394.992,112.347c-5.883,0-11.436,1.397-16.359,3.866
			c-4.973-14.284-18.548-24.539-34.527-24.539c-20.191,0-36.559,16.368-36.559,36.559c0,20.192,16.368,36.559,36.559,36.559
			c5.883,0,11.436-1.397,16.36-3.866c4.972,14.284,18.547,24.539,34.526,24.539c20.191,0,36.56-16.368,36.56-36.559
			S415.183,112.347,394.992,112.347"/>
		<path style="opacity:0.27;fill:#FDB126;" d="M380.69,95.78c0,2.415-1.958,4.373-4.373,4.373c-2.415,0-4.373-1.958-4.373-4.373
			s1.958-4.373,4.373-4.373C378.732,91.407,380.69,93.365,380.69,95.78"/>
		<path style="opacity:0.27;fill:#FDB126;" d="M430.291,184.259c0,2.329-1.889,4.216-4.217,4.216c-2.329,0-4.217-1.887-4.217-4.216
			c0-2.329,1.888-4.217,4.217-4.217C428.402,180.042,430.291,181.93,430.291,184.259"/>
	</g>
	<g>
		<path style="opacity:0.21;fill:#EA4484;" d="M183.346,110.434c0,20.191-16.368,36.559-36.559,36.559s-36.559-16.368-36.559-36.559
			s16.368-36.56,36.559-36.56S183.346,90.243,183.346,110.434"/>
		<path style="opacity:0.21;fill:#EA4484;" d="M136.651,341.469c0,28.97-23.484,52.454-52.454,52.454
			c-28.969,0-52.453-23.484-52.453-52.454c0-28.969,23.484-52.453,52.453-52.453C113.167,289.016,136.651,312.5,136.651,341.469"/>
	</g>
	<g>
		<path style="fill:#B6DCFD;" d="M243.181,73.224c-53.076,0-101.152,21.393-136.09,56.019c-6.177-6.94-15.173-11.316-25.194-11.316
			c-18.625,0-33.723,15.099-33.723,33.724c0,14.014,8.549,26.03,20.716,31.121c-12.21,25.351-19.053,53.774-19.053,83.795
			c0,48.259,17.684,92.386,46.921,126.261h292.846c29.236-33.875,46.92-78.002,46.92-126.261
			C436.524,159.787,349.961,73.224,243.181,73.224z"/>
		<path style="fill:#B6DCFD;" d="M454.221,263.319c-0.919,3.889-4.818,6.297-8.707,5.377c-3.889-0.919-6.297-4.818-5.377-8.707
			c0.919-3.89,4.818-6.296,8.707-5.377C452.732,255.531,455.14,259.429,454.221,263.319"/>
		<path style="fill:#B6DCFD;" d="M448.873,244.48c-0.46,1.944-2.409,3.148-4.353,2.689c-1.944-0.46-3.148-2.409-2.689-4.353
			c0.46-1.944,2.409-3.148,4.353-2.689C448.129,240.586,449.332,242.536,448.873,244.48"/>
	</g>
</g>
<g id="OBJECTS">
	<g>
		<path style="opacity:0.47;fill:#6CADE3;" d="M65.022,198.311c-6.889,19.618-10.648,40.709-10.648,62.681
			c0,43.308,14.564,83.207,39.047,115.091h247.573V198.311H65.022z"/>
		<rect x="340.993" y="106.856" style="fill:#6CADE3;" width="50.558" height="269.228"/>
		<path style="fill:none;stroke:#6CADE3;stroke-miterlimit:10;" d="M133.403,366.742H92.709
			c-30.937-46.34-43.179-111.404-22.973-164.868h63.667V366.742z"/>
		<rect x="138.266" y="201.874" style="fill:none;stroke:#6CADE3;stroke-miterlimit:10;" width="95.742" height="164.868"/>
		<rect x="238.571" y="201.874" style="fill:none;stroke:#6CADE3;stroke-miterlimit:10;" width="93.741" height="30.196"/>
		
			<rect x="238.571" y="240.802" style="fill:none;stroke:#39AFE6;stroke-width:0.941;stroke-miterlimit:10;" width="93.741" height="30.196"/>
		
			<rect x="238.571" y="276.486" style="fill:none;stroke:#39AFE6;stroke-width:0.941;stroke-miterlimit:10;" width="93.741" height="90.256"/>
		<path style="fill:none;stroke:#6CADE3;stroke-miterlimit:10;" d="M122.198,298.896c-1.195,0-2.167-1.098-2.167-2.446v-18.816
			c0-1.348,0.972-2.446,2.167-2.446c1.195,0,2.168,1.098,2.168,2.446v18.816C124.366,297.798,123.393,298.896,122.198,298.896z"/>
		<path style="opacity:0.47;fill:#6CADE3;" d="M135.469,198.306h205.524v-91.451H135.469V198.306z M336.142,192.529H140.32v-80.896
			h195.822V192.529z"/>
		<rect x="140.32" y="111.634" style="fill:#6CADE3;" width="49.27" height="80.896"/>
		<path style="fill:#EA4484;" d="M258.76,143.635v9.752c0,3.269,2.675,3.943,5.943,3.943h9.467c3.269,0,5.944-0.674,5.944-3.943
			v-9.752H258.76z"/>
		<rect x="256.6" y="141.987" style="fill:#FFFFFF;" width="14.403" height="8.803"/>
		<path style="opacity:0.47;fill:none;stroke:#6CADE3;stroke-miterlimit:10;" d="M274.955,159.592H263.92
			c-4.008,0-7.286-1.278-7.286-5.286v-15.353c0-4.007,3.278-7.286,7.286-7.286h11.035c4.008,0,7.286,3.279,7.286,7.286v15.353
			C282.241,158.314,278.963,159.592,274.955,159.592z"/>
		<path style="fill:#EA4484;" d="M281.278,136.386h-23.682c-1.644,0-2.989-1.345-2.989-2.989s1.345-2.989,2.989-2.989h23.682
			c1.645,0,2.989,1.345,2.989,2.989S282.923,136.386,281.278,136.386"/>
		<g style="opacity:0.39;">
			<g>
				<defs>
					<rect id="SVGID_1_" x="254.714" y="134.143" width="29.447" height="2.243"/>
				</defs>
				<clipPath id="SVGID_00000034063426244494024130000014724343691299468206_">
					<use xlink:href="#SVGID_1_"  style="overflow:visible;"/>
				</clipPath>
				<path style="clip-path:url(#SVGID_00000034063426244494024130000014724343691299468206_);fill:#C2E2FD;" d="M254.713,134.143
					c0.335,1.284,1.498,2.243,2.883,2.243h23.681c1.385,0,2.548-0.959,2.883-2.243H254.713z"/>
			</g>
		</g>
		<g style="opacity:0.56;">
			<g>
				<defs>
					<rect id="SVGID_00000110451207516388453810000010102145493906369162_" x="277.772" y="138.57" width="1.233" height="14.037"/>
				</defs>
				<clipPath id="SVGID_00000088819853931415567380000018184764009631315600_">
					<use xlink:href="#SVGID_00000110451207516388453810000010102145493906369162_"  style="overflow:visible;"/>
				</clipPath>
				<path style="clip-path:url(#SVGID_00000088819853931415567380000018184764009631315600_);fill:#FFFFFF;" d="M278.388,152.607
					c-0.34,0-0.616-0.276-0.616-0.617v-12.803c0-0.341,0.276-0.617,0.616-0.617c0.341,0,0.617,0.276,0.617,0.617v12.803
					C279.005,152.331,278.729,152.607,278.388,152.607"/>
			</g>
		</g>
		<path style="fill:#FDB126;" d="M290.77,146.947v6.241c0,3.268,2.674,3.943,5.943,3.943h9.466c3.269,0,5.944-0.675,5.944-3.943
			v-6.241H290.77z"/>
		<rect x="288.608" y="141.788" style="fill:#FFFFFF;" width="14.404" height="8.803"/>
		<path style="opacity:0.47;fill:none;stroke:#6CADE3;stroke-miterlimit:10;" d="M306.99,159.393h-11.087
			c-3.993,0-7.26-1.267-7.26-5.26v-15.205c0-3.993,3.267-7.26,7.26-7.26h11.087c3.993,0,7.26,3.267,7.26,7.26v15.205
			C314.25,158.126,310.983,159.393,306.99,159.393z"/>
		<path style="fill:#FDB126;" d="M313.288,136.186h-23.683c-1.643,0-2.988-1.345-2.988-2.989c0-1.644,1.345-2.99,2.988-2.99h23.683
			c1.644,0,2.988,1.346,2.988,2.99C316.276,134.841,314.932,136.186,313.288,136.186"/>
		<g style="opacity:0.39;">
			<g>
				<defs>
					
						<rect id="SVGID_00000063622725532410114050000003453084843011334019_" x="286.723" y="133.943" width="29.447" height="2.243"/>
				</defs>
				<clipPath id="SVGID_00000170976787861810688950000011293405394957810862_">
					<use xlink:href="#SVGID_00000063622725532410114050000003453084843011334019_"  style="overflow:visible;"/>
				</clipPath>
				<path style="clip-path:url(#SVGID_00000170976787861810688950000011293405394957810862_);fill:#C2E2FD;" d="M286.723,133.943
					c0.335,1.284,1.497,2.243,2.882,2.243h23.682c1.385,0,2.547-0.959,2.882-2.243H286.723z"/>
			</g>
		</g>
		<g style="opacity:0.56;">
			<g>
				<defs>
					<rect id="SVGID_00000067203707921685008020000010280949271603444884_" x="309.781" y="138.37" width="1.234" height="14.037"/>
				</defs>
				<clipPath id="SVGID_00000102538791063553722170000003369253930338325154_">
					<use xlink:href="#SVGID_00000067203707921685008020000010280949271603444884_"  style="overflow:visible;"/>
				</clipPath>
				<path style="clip-path:url(#SVGID_00000102538791063553722170000003369253930338325154_);fill:#FFFFFF;" d="M310.398,152.407
					c-0.341,0-0.617-0.276-0.617-0.617v-12.803c0-0.341,0.276-0.617,0.617-0.617s0.616,0.276,0.616,0.617v12.803
					C311.014,152.131,310.739,152.407,310.398,152.407"/>
			</g>
		</g>
		<path style="fill:#6CADE3;" d="M314.232,88.699v12.659c0,3.269,2.674,3.944,5.943,3.944h9.466c3.269,0,5.944-0.675,5.944-3.944
			V88.699H314.232z"/>
		<rect x="312.07" y="89.958" style="fill:#FFFFFF;" width="14.404" height="8.802"/>
		<path style="opacity:0.47;fill:none;stroke:#6CADE3;stroke-miterlimit:10;" d="M330.452,107.563h-11.087
			c-3.993,0-7.26-1.267-7.26-5.26V87.098c0-3.993,3.267-7.261,7.26-7.261h11.087c3.993,0,7.26,3.268,7.26,7.261v15.205
			C337.712,106.296,334.445,107.563,330.452,107.563z"/>
		<path style="fill:#6CADE3;" d="M336.75,84.356h-23.683c-1.643,0-2.988-1.345-2.988-2.989c0-1.644,1.345-2.99,2.988-2.99h23.683
			c1.644,0,2.988,1.346,2.988,2.99C339.738,83.011,338.394,84.356,336.75,84.356"/>
		<g style="opacity:0.39;">
			<g>
				<defs>
					<rect id="SVGID_00000183238306909434545660000012623355447189207970_" x="310.185" y="82.114" width="29.447" height="2.242"/>
				</defs>
				<clipPath id="SVGID_00000015330780788392585850000000925153700060664211_">
					<use xlink:href="#SVGID_00000183238306909434545660000012623355447189207970_"  style="overflow:visible;"/>
				</clipPath>
				<path style="clip-path:url(#SVGID_00000015330780788392585850000000925153700060664211_);fill:#C2E2FD;" d="M310.185,82.113
					c0.335,1.284,1.497,2.243,2.882,2.243h23.682c1.385,0,2.547-0.959,2.882-2.243H310.185z"/>
			</g>
		</g>
		<g style="opacity:0.56;">
			<g>
				<defs>
					<rect id="SVGID_00000182511494750349249600000001437820221701652633_" x="333.243" y="86.541" width="1.234" height="14.037"/>
				</defs>
				<clipPath id="SVGID_00000128459001972000255550000004690717832711467174_">
					<use xlink:href="#SVGID_00000182511494750349249600000001437820221701652633_"  style="overflow:visible;"/>
				</clipPath>
				<path style="clip-path:url(#SVGID_00000128459001972000255550000004690717832711467174_);fill:#FFFFFF;" d="M333.86,100.578
					c-0.341,0-0.617-0.276-0.617-0.617V87.158c0-0.341,0.276-0.617,0.617-0.617s0.616,0.276,0.616,0.617v12.803
					C334.476,100.302,334.201,100.578,333.86,100.578"/>
			</g>
		</g>
		<g>
			<path style="fill:#6CADE3;" d="M187.429,222.68c-7.176,0-13.081-5.385-13.736-12.525l-0.05-0.546h27.572l-0.05,0.546
				C200.51,217.296,194.605,222.68,187.429,222.68z M174.751,210.609c0.85,6.35,6.207,11.071,12.679,11.071
				c6.472,0,11.829-4.722,12.679-11.071H174.751z"/>
		</g>
		<g>
			<g>
				<rect x="160.813" y="126.657" style="fill:#FFFFFF;" width="45.315" height="32.936"/>
				<rect x="206.128" y="126.656" style="fill:#CCC8D8;" width="34.724" height="32.936"/>
				<g style="opacity:0.61;">
					<g style="opacity:0.43;">
						<rect x="160.378" y="128.083" style="fill:#101A46;" width="80.155" height="0.25"/>
					</g>
					<g style="opacity:0.43;">
						<rect x="160.378" y="131.377" style="fill:#101A46;" width="80.155" height="0.25"/>
					</g>
					<g style="opacity:0.43;">
						<rect x="160.378" y="134.671" style="fill:#101A46;" width="80.155" height="0.25"/>
					</g>
					<g style="opacity:0.43;">
						<rect x="160.378" y="137.965" style="fill:#101A46;" width="80.155" height="0.25"/>
					</g>
					<g style="opacity:0.43;">
						<rect x="160.378" y="141.259" style="fill:#101A46;" width="80.155" height="0.25"/>
					</g>
					<g style="opacity:0.43;">
						<rect x="160.378" y="144.553" style="fill:#101A46;" width="80.155" height="0.25"/>
					</g>
					<g style="opacity:0.43;">
						<rect x="160.378" y="147.847" style="fill:#101A46;" width="80.155" height="0.25"/>
					</g>
					<g style="opacity:0.43;">
						<rect x="160.378" y="151.141" style="fill:#101A46;" width="80.155" height="0.25"/>
					</g>
					<g style="opacity:0.43;">
						<rect x="160.378" y="154.436" style="fill:#101A46;" width="80.155" height="0.25"/>
					</g>
					<g style="opacity:0.43;">
						<rect x="160.378" y="157.73" style="fill:#101A46;" width="80.155" height="0.25"/>
					</g>
				</g>
			</g>
			<g>
				<rect x="154.515" y="159.592" style="fill:#EFEFEF;" width="45.315" height="32.937"/>
				<rect x="199.83" y="159.593" style="fill:#CCC8D8;" width="34.724" height="32.937"/>
				<g style="opacity:0.61;">
					<g style="opacity:0.43;">
						<rect x="154.156" y="161.024" style="fill:#101A46;" width="80.155" height="0.25"/>
					</g>
					<g style="opacity:0.43;">
						<rect x="154.156" y="164.318" style="fill:#101A46;" width="80.155" height="0.25"/>
					</g>
					<g style="opacity:0.43;">
						<rect x="154.156" y="167.612" style="fill:#101A46;" width="80.155" height="0.25"/>
					</g>
					<g style="opacity:0.43;">
						<rect x="154.156" y="170.906" style="fill:#101A46;" width="80.155" height="0.25"/>
					</g>
					<g style="opacity:0.43;">
						<rect x="154.156" y="174.2" style="fill:#101A46;" width="80.155" height="0.25"/>
					</g>
					<g style="opacity:0.43;">
						<rect x="154.156" y="177.494" style="fill:#101A46;" width="80.155" height="0.25"/>
					</g>
					<g style="opacity:0.43;">
						<rect x="154.156" y="180.788" style="fill:#101A46;" width="80.155" height="0.25"/>
					</g>
					<g style="opacity:0.43;">
						<rect x="154.156" y="184.082" style="fill:#101A46;" width="80.155" height="0.25"/>
					</g>
					<g style="opacity:0.43;">
						<rect x="154.156" y="187.376" style="fill:#101A46;" width="80.155" height="0.25"/>
					</g>
					<g style="opacity:0.43;">
						<rect x="154.156" y="190.67" style="fill:#101A46;" width="80.155" height="0.25"/>
					</g>
				</g>
			</g>
			<g>
				<rect x="244.87" y="159.592" style="fill:#EFEFEF;" width="45.315" height="32.937"/>
				<rect x="290.185" y="159.593" style="fill:#CCC8D8;" width="34.723" height="32.937"/>
				<g style="opacity:0.61;">
					<g style="opacity:0.43;">
						<rect x="244.56" y="160.658" style="fill:#101A46;" width="80.155" height="0.25"/>
					</g>
					<g style="opacity:0.43;">
						<rect x="244.56" y="163.952" style="fill:#101A46;" width="80.155" height="0.25"/>
					</g>
					<g style="opacity:0.43;">
						<rect x="244.56" y="167.246" style="fill:#101A46;" width="80.155" height="0.25"/>
					</g>
					<g style="opacity:0.43;">
						<rect x="244.56" y="170.54" style="fill:#101A46;" width="80.155" height="0.25"/>
					</g>
					<g style="opacity:0.43;">
						<rect x="244.56" y="173.834" style="fill:#101A46;" width="80.155" height="0.25"/>
					</g>
					<g style="opacity:0.43;">
						<rect x="244.56" y="177.128" style="fill:#101A46;" width="80.155" height="0.25"/>
					</g>
					<g style="opacity:0.43;">
						<rect x="244.56" y="180.422" style="fill:#101A46;" width="80.155" height="0.25"/>
					</g>
					<g style="opacity:0.43;">
						<rect x="244.56" y="183.716" style="fill:#101A46;" width="80.155" height="0.25"/>
					</g>
					<g style="opacity:0.43;">
						<rect x="244.56" y="187.01" style="fill:#101A46;" width="80.155" height="0.25"/>
					</g>
					<g style="opacity:0.43;">
						<rect x="244.56" y="190.304" style="fill:#101A46;" width="80.155" height="0.25"/>
					</g>
				</g>
			</g>
		</g>
	</g>
	<path style="fill:#6CADE3;" d="M438.356,416.799h-33.525c1.817-2.191,2.943-5.145,2.943-8.391c0-5.238-2.92-9.72-6.981-11.442
		h27.59c5.851,0,10.638-5.492,10.638-12.205c0-6.712-4.787-12.204-10.638-12.204H282.788h-55.846H81.345
		c-5.85,0-10.636,5.492-10.636,12.204c0,5.239,2.92,9.721,6.981,11.442H50.099c-5.85,0-10.638,5.492-10.638,12.205
		c0,6.713,4.788,12.205,10.638,12.205h33.525c-1.818,2.193-2.944,5.146-2.944,8.391c0,6.713,4.787,12.205,10.638,12.205h145.597
		h55.844h145.597c5.851,0,10.638-5.492,10.638-12.205C448.994,422.291,444.207,416.799,438.356,416.799"/>
	<g>
		<defs>
			<path id="SVGID_00000163756632199620355200000003702832569289615744_" d="M282.788,372.558h-55.845H81.345
				c-5.85,0-10.636,5.491-10.636,12.203c0,5.239,2.92,9.721,6.981,11.443H50.1c-5.851,0-10.638,5.492-10.638,12.205
				c0,6.713,4.787,12.205,10.638,12.205h33.524c-1.817,2.192-2.944,5.145-2.944,8.391c0,6.713,4.788,12.204,10.638,12.204h145.597
				h55.844h145.597c5.851,0,10.638-5.491,10.638-12.204c0-6.714-4.787-12.205-10.638-12.205h-33.525
				c1.817-2.192,2.943-5.145,2.943-8.391c0-5.238-2.92-9.721-6.981-11.443h27.59c5.851,0,10.638-5.491,10.638-12.205
				c0-6.712-4.787-12.203-10.638-12.203H282.788z"/>
		</defs>
		<clipPath id="SVGID_00000178200306905425769380000009464528245801902230_">
			<use xlink:href="#SVGID_00000163756632199620355200000003702832569289615744_"  style="overflow:visible;"/>
		</clipPath>
		<g style="opacity:0.35;clip-path:url(#SVGID_00000178200306905425769380000009464528245801902230_);">
			<g>
				<defs>
					
						<rect id="SVGID_00000030477753280166605100000000447945059757146292_" x="70.708" y="384.174" width="368.831" height="1.175"/>
				</defs>
				<clipPath id="SVGID_00000096058677876512782690000008516338631460131760_">
					<use xlink:href="#SVGID_00000030477753280166605100000000447945059757146292_"  style="overflow:visible;"/>
				</clipPath>
				
					<rect x="70.709" y="384.173" style="clip-path:url(#SVGID_00000096058677876512782690000008516338631460131760_);fill:#101A46;" width="368.831" height="1.176"/>
			</g>
		</g>
		<g style="opacity:0.35;clip-path:url(#SVGID_00000178200306905425769380000009464528245801902230_);">
			<g>
				<defs>
					
						<rect id="SVGID_00000080916198920247930470000007253217254025808770_" x="70.708" y="395.191" width="368.831" height="1.176"/>
				</defs>
				<clipPath id="SVGID_00000043429909984942790170000005547705964184327082_">
					<use xlink:href="#SVGID_00000080916198920247930470000007253217254025808770_"  style="overflow:visible;"/>
				</clipPath>
				
					<rect x="70.709" y="395.191" style="clip-path:url(#SVGID_00000043429909984942790170000005547705964184327082_);fill:#101A46;" width="368.831" height="1.176"/>
			</g>
		</g>
		<g style="opacity:0.35;clip-path:url(#SVGID_00000178200306905425769380000009464528245801902230_);">
			<g>
				<defs>
					
						<rect id="SVGID_00000133509997078468137910000014708930711058940059_" x="41.733" y="419.901" width="411.066" height="1.176"/>
				</defs>
				<clipPath id="SVGID_00000063598751933808847560000013880429589584029111_">
					<use xlink:href="#SVGID_00000133509997078468137910000014708930711058940059_"  style="overflow:visible;"/>
				</clipPath>
				
					<rect x="41.733" y="419.901" style="clip-path:url(#SVGID_00000063598751933808847560000013880429589584029111_);fill:#101A46;" width="411.066" height="1.176"/>
			</g>
		</g>
		<g style="opacity:0.35;clip-path:url(#SVGID_00000178200306905425769380000009464528245801902230_);">
			<g>
				<defs>
					
						<rect id="SVGID_00000044143065385279835110000009507578771384455059_" x="71.165" y="431.967" width="381.633" height="1.176"/>
				</defs>
				<clipPath id="SVGID_00000090992319510202744150000015765348668846180783_">
					<use xlink:href="#SVGID_00000044143065385279835110000009507578771384455059_"  style="overflow:visible;"/>
				</clipPath>
				
					<rect x="71.165" y="431.967" style="clip-path:url(#SVGID_00000090992319510202744150000015765348668846180783_);fill:#101A46;" width="381.634" height="1.175"/>
			</g>
		</g>
		<g style="opacity:0.35;clip-path:url(#SVGID_00000178200306905425769380000009464528245801902230_);">
			<g>
				<defs>
					
						<rect id="SVGID_00000140006195488593842480000002316349352061971593_" x="38.244" y="407.258" width="383.005" height="1.176"/>
				</defs>
				<clipPath id="SVGID_00000132787244301506727140000009367891368845165490_">
					<use xlink:href="#SVGID_00000140006195488593842480000002316349352061971593_"  style="overflow:visible;"/>
				</clipPath>
				
					<rect x="38.244" y="407.258" style="clip-path:url(#SVGID_00000132787244301506727140000009367891368845165490_);fill:#101A46;" width="383.005" height="1.176"/>
			</g>
		</g>
	</g>
	<path style="fill:#FFEBBD;" d="M109.368,117.803c0,3.27-2.65,5.92-5.92,5.92c-3.269,0-5.92-2.65-5.92-5.92
		c0-3.27,2.651-5.92,5.92-5.92C106.718,111.883,109.368,114.533,109.368,117.803"/>
	<g>
		<g>
			<path style="fill:#6CADE3;" d="M72.354,392.879c-0.256-0.307-25.582-31.144-29.368-70.13l0.995-0.097
				c3.756,38.671,28.888,69.283,29.142,69.587L72.354,392.879z"/>
		</g>
		<path style="fill:#6CADE3;" d="M46.192,336.977c0,0-13.693-18.497-4.781-22.007C50.323,311.461,46.192,336.977,46.192,336.977z"/>
		<path style="fill:#6CADE3;" d="M52.7,357.616c0,0-8.579-21.355,0.93-22.5C63.14,333.97,52.7,357.616,52.7,357.616z"/>
		<path style="fill:#6CADE3;" d="M62.966,379.048c0,0-7.813-21.647,1.73-22.453C74.241,355.788,62.966,379.048,62.966,379.048z"/>
		<path style="fill:#6CADE3;" d="M54.51,361.804c0,0-21.451-8.336-15.787-16.06C44.387,338.021,54.51,361.804,54.51,361.804z"/>
		<path style="fill:#6CADE3;" d="M64.582,379.542c0,0-22.377-5.377-17.803-13.792C51.354,357.335,64.582,379.542,64.582,379.542z"/>
	</g>
	<g>
		<g>
			<g>
				<path style="fill:#36C0A9;" d="M433.512,376.59c11.89-9.527,22.131-21.106,30.135-34.07c2.042-3.308,3.998-6.926,3.894-10.812
					c-0.105-3.886-3.069-7.951-6.956-7.866c-5.126,0.111-7.396,6.274-10.645,10.241c3.646-6.28,6.927-12.771,9.822-19.431
					c3.123-7.184,5.84-14.842,5.304-22.657c-0.373-5.442-3.526-11.678-8.975-11.921c-5.674-0.253-9.229,5.897-11.33,11.173
					c-3.512,8.818-6.73,17.752-9.648,26.784c1.685-6.707,1.936-13.771,0.732-20.582c-0.799-4.516-2.724-9.473-7.006-11.117
					c-5.263-2.021-10.95,2.153-13.982,6.905c-3.87,6.066-5.48,13.289-6.471,20.416c-2.17,15.618-1.674,31.603,1.46,47.056
					c0.928,4.576,2.146,9.239,4.93,12.988c2.784,3.749,7.479,6.414,12.069,5.56L433.512,376.59z"/>
			</g>
			<g style="opacity:0.47;">
				<path style="fill:#101A46;" d="M439.201,338.788l-0.458-0.019l0.62-15.471l1,0.04l-0.554,13.819
					c9.759-26.294,18.207-54.866,18.35-55.351l0.959,0.282c-0.037,0.127-2.36,8.002-5.944,19.201l6.645-3.994l0.516,0.857
					l-7.624,4.583c-2.151,6.69-4.715,14.442-7.493,22.394c-10.417,29.818-18.7,48.013-24.618,54.083l-0.716-0.699
					C425.418,372.838,432.575,356.476,439.201,338.788z"/>
				<path style="fill:#101A46;" d="M422.688,342.32l-0.632,0.281l-6.62-14.865l0.913-0.406l6.389,14.344
					c0.477-6.296,0.897-12.87,1.258-19.189l-0.043-0.023l0.049-0.092c1.064-18.645,1.617-35.031,1.629-35.392l0.999,0.033
					c-0.046,1.391-0.543,16.111-1.492,33.251l6.369-11.818l0.881,0.474l-7.382,13.698c-1.293,22.627-3.356,48.533-6.196,53.485
					l-0.868-0.498C419.88,372.224,421.468,358.226,422.688,342.32z"/>
				<path style="fill:#101A46;" d="M445.652,347.465l0.965,0.263l-2.462,9.042c9.975-14.496,19.695-30.418,19.857-30.685l0.854,0.52
					c-0.51,0.837-6.315,10.345-13.445,21.182l7.339-3.566l0.437,0.899l-8.615,4.186l-0.069-0.142
					c-8.224,12.43-17.945,26.179-23.356,30.484l-0.623-0.783c3.762-2.993,9.786-10.862,15.914-19.634L445.652,347.465z"/>
			</g>
		</g>
		<g>
			<g>
				<g>
					<path style="fill:#6CADE3;" d="M100.264,128.435c-0.135-0.305-13.456-30.84-7.619-63.015l0.821,0.149
						c-5.789,31.916,7.427,62.226,7.561,62.528L100.264,128.435z"/>
				</g>
				<path style="fill:#6CADE3;" d="M91.98,77.578c0,0-6.786-17.975,1.171-18.764C101.108,58.025,91.98,77.578,91.98,77.578z"/>
				<path style="fill:#6CADE3;" d="M92.508,95.638c0,0-2.028-19.106,5.871-17.861S92.508,95.638,92.508,95.638z"/>
				<path style="fill:#6CADE3;" d="M95.873,115.189c0,0-1.347-19.166,6.502-17.64C110.225,99.074,95.873,115.189,95.873,115.189z"/>
				<path style="fill:#6CADE3;" d="M93.007,99.413c0,0-15.331-11.58-9.023-16.494C90.292,78.006,93.007,99.413,93.007,99.413z"/>
				<path style="fill:#6CADE3;" d="M97.058,115.953c0,0-16.749-9.414-11.158-15.131C91.49,95.105,97.058,115.953,97.058,115.953z"/>
			</g>
			<g>
				<g>
					<path style="fill:#36C0A9;" d="M92.112,185.709c-9.883-8.007-18.38-17.72-25.004-28.579c-1.69-2.771-3.307-5.8-3.202-9.044
						c0.105-3.244,2.598-6.624,5.843-6.536c4.279,0.116,6.146,5.271,8.84,8.598c-3.015-5.259-5.725-10.693-8.112-16.266
						c-2.575-6.012-4.808-12.417-4.326-18.939c0.336-4.541,2.997-9.734,7.547-9.912c4.738-0.186,7.678,4.964,9.408,9.379
						c2.892,7.377,5.538,14.851,7.933,22.404c-1.376-5.607-1.554-11.506-0.518-17.186c0.687-3.767,2.317-7.896,5.899-9.249
						c4.403-1.664,9.132,1.847,11.642,5.828c3.204,5.082,4.515,11.119,5.31,17.074c1.741,13.048,1.255,26.39-1.432,39.277
						c-0.796,3.816-1.834,7.703-4.175,10.82c-2.341,3.117-6.272,5.321-10.101,4.588L92.112,185.709z"/>
				</g>
				<g style="opacity:0.47;">
					<path style="fill:#101A46;" d="M87.533,154.125l0.382-0.014l-0.447-12.918l-0.835,0.029l0.4,11.539
						c-8.028-21.995-14.951-45.886-15.068-46.292l-0.802,0.231c0.03,0.106,1.934,6.691,4.876,16.056l-5.529-3.364l-0.434,0.713
						l6.344,3.86c1.766,5.595,3.871,12.078,6.154,18.729c8.562,24.94,15.394,40.168,20.307,45.262l0.601-0.58
						C98.886,182.614,92.985,168.921,87.533,154.125z"/>
					<path style="fill:#101A46;" d="M101.303,157.148l0.526,0.238l5.594-12.38l-0.76-0.343l-5.398,11.946
						c-0.37-5.258-0.691-10.748-0.964-16.025l0.036-0.019l-0.041-0.077c-0.804-15.571-1.191-29.253-1.2-29.554l-0.834,0.023
						c0.032,1.161,0.38,13.452,1.095,27.766l-5.263-9.895l-0.737,0.392l6.101,11.469c0.977,18.896,2.582,40.533,4.931,44.68
						l0.727-0.412C103.512,182.126,102.249,170.433,101.303,157.148z"/>
					<path style="fill:#101A46;" d="M82.108,161.339l-0.807,0.215l2.014,7.56c-8.261-12.146-16.304-25.484-16.438-25.707
						l-0.715,0.43c0.422,0.701,5.225,8.665,11.128,17.744l-6.111-3.01l-0.369,0.748l7.173,3.533l0.058-0.118
						c6.809,10.414,14.863,21.936,19.36,25.555l0.523-0.651c-3.127-2.516-8.121-9.112-13.197-16.463L82.108,161.339z"/>
				</g>
			</g>
		</g>
		<g>
			<polygon style="fill:#FFFFFF;" points="86.864,188.672 113.039,188.672 113.667,183.142 85.952,183.142 			"/>
			<polygon style="fill:#EFEFEF;" points="89.153,197.848 110.744,197.848 111.24,188.672 88.379,188.672 			"/>
		</g>
	</g>
	<g>
		<g style="opacity:0.32;">
			<g>
				<defs>
					
						<rect id="SVGID_00000023964789867722697230000005622681100562894983_" x="135.571" y="417.914" width="280.587" height="7.81"/>
				</defs>
				<use xlink:href="#SVGID_00000023964789867722697230000005622681100562894983_"  style="overflow:visible;fill:#101A46;"/>
				<clipPath id="SVGID_00000141418498784802987560000001917252458355599533_">
					<use xlink:href="#SVGID_00000023964789867722697230000005622681100562894983_"  style="overflow:visible;"/>
				</clipPath>
				<path style="clip-path:url(#SVGID_00000141418498784802987560000001917252458355599533_);fill:#101A46;" d="M412.254,425.725
					H139.476c-2.148,0-3.906-1.758-3.906-3.905c0-2.149,1.758-3.906,3.906-3.906h272.778c2.147,0,3.904,1.757,3.904,3.906
					C416.158,423.967,414.401,425.725,412.254,425.725"/>
			</g>
		</g>
		<path style="fill:#101A46;" d="M366.341,407.484c0,7.757-6.289,14.046-14.047,14.046c-7.757,0-14.046-6.289-14.046-14.046
			c0-7.758,6.289-14.047,14.046-14.047C360.052,393.437,366.341,399.726,366.341,407.484"/>
		<path style="fill:#101A46;" d="M406.048,407.484c0,7.757-6.288,14.046-14.046,14.046c-7.758,0-14.047-6.289-14.047-14.046
			c0-7.758,6.289-14.047,14.047-14.047C399.76,393.437,406.048,399.726,406.048,407.484"/>
		<path style="fill:#101A46;" d="M185.401,407.484c0,7.757-6.289,14.046-14.047,14.046c-7.757,0-14.046-6.289-14.046-14.046
			c0-7.758,6.289-14.047,14.046-14.047C179.112,393.437,185.401,399.726,185.401,407.484"/>
		<path style="opacity:0.18;fill:#FFFFFF;" d="M180.838,407.484c0,5.237-4.246,9.483-9.484,9.483c-5.237,0-9.483-4.246-9.483-9.483
			c0-5.238,4.246-9.484,9.483-9.484C176.592,398,180.838,402.246,180.838,407.484"/>
		<path style="fill:#101A46;" d="M225.108,407.484c0,7.757-6.289,14.046-14.046,14.046c-7.758,0-14.047-6.289-14.047-14.046
			c0-7.758,6.289-14.047,14.047-14.047C218.819,393.437,225.108,399.726,225.108,407.484"/>
		<path style="opacity:0.18;fill:#FFFFFF;" d="M219.797,407.484c0,5.237-4.246,9.483-9.484,9.483c-5.237,0-9.483-4.246-9.483-9.483
			c0-5.238,4.246-9.484,9.483-9.484C215.551,398,219.797,402.246,219.797,407.484"/>
		<path style="opacity:0.18;fill:#FFFFFF;" d="M361.79,407.806c0,5.237-4.246,9.483-9.484,9.483c-5.237,0-9.483-4.246-9.483-9.483
			c0-5.238,4.246-9.484,9.483-9.484C357.544,398.322,361.79,402.568,361.79,407.806"/>
		<path style="opacity:0.18;fill:#FFFFFF;" d="M401.071,407.806c0,5.237-4.246,9.483-9.484,9.483c-5.237,0-9.483-4.246-9.483-9.483
			c0-5.238,4.246-9.484,9.483-9.484C396.825,398.322,401.071,402.568,401.071,407.806"/>
		<g>
			<g>
				<path style="fill:#FFFFFF;" d="M371.874,174.109h-74.949c-4.858,0-9.656,4.099-11.832,8.833l-20,35.702h92.885L371.874,174.109z
					"/>
				<path style="fill:#CCC8D8;" d="M402.662,182.942c0-4.858-3.975-8.833-8.832-8.833h-25.021l-17.928,44.535h51.781V182.942z"/>
				<polygon style="fill:#FFFFFF;" points="345.535,212.86 293.622,212.86 309.622,180.723 358.535,180.723 				"/>
				<polygon style="opacity:0.49;fill:#CCC8D8;" points="345.535,212.86 293.622,212.86 309.622,180.723 358.535,180.723 				"/>
				<g>
					<path style="fill:#101A46;" d="M347.351,214.47h-56.879l17.603-35.356h53.578l-0.14,0.344L347.351,214.47z M291.279,213.97
						h55.734l13.898-34.356h-52.525L291.279,213.97z"/>
				</g>
				<polygon style="fill:#36C0A9;" points="349.721,194.306 305.776,194.306 307.423,190.911 351.087,190.911 				"/>
				<polygon style="fill:#36C0A9;" points="317.97,189.095 308.303,189.095 311.143,183.241 320.702,183.241 				"/>
				<polygon style="fill:#6CADE3;" points="329.252,189.095 319.585,189.095 322.3,183.241 331.858,183.241 				"/>
				<polygon style="fill:#EA4484;" points="340.534,189.095 330.868,189.095 333.456,183.241 343.014,183.241 				"/>
				<polygon style="fill:#FDB126;" points="351.817,189.095 342.151,189.095 344.613,183.241 354.172,183.241 				"/>
				<polygon style="fill:#36C0A9;" points="347.613,199.545 303.233,199.545 304.913,196.083 349.007,196.083 				"/>
				<polygon style="fill:#36C0A9;" points="345.463,204.89 300.641,204.89 302.354,201.358 346.884,201.358 				"/>
				<polygon style="fill:#36C0A9;" points="343.27,210.342 297.997,210.342 299.744,206.739 344.719,206.739 				"/>
				<path style="fill:#EFEFEF;" d="M303.681,181.842c0,1.355-1.099,2.454-2.454,2.454c-1.355,0-2.453-1.099-2.453-2.454
					c0-1.355,1.098-2.454,2.453-2.454C302.582,179.388,303.681,180.487,303.681,181.842"/>
				<path style="fill:#EA4484;" d="M302.981,181.742c0,1.023-0.83,1.853-1.854,1.853c-1.023,0-1.853-0.83-1.853-1.853
					c0-1.023,0.83-1.854,1.853-1.854C302.151,179.888,302.981,180.719,302.981,181.742"/>
				<path style="opacity:0.28;fill:#FFFFFF;" d="M302.484,181.564c0,0.9-0.729,1.63-1.63,1.63c-0.9,0-1.631-0.73-1.631-1.63
					c0-0.9,0.731-1.63,1.631-1.63C301.755,179.934,302.484,180.664,302.484,181.564"/>
				<g style="opacity:0.61;">
					<g>
						<defs>
							
								<rect id="SVGID_00000062875567056207934610000005401430015300474523_" x="299.905" y="179.998" width="2.507" height="2.654"/>
						</defs>
						<clipPath id="SVGID_00000083053914938961447210000011151925489338325694_">
							<use xlink:href="#SVGID_00000062875567056207934610000005401430015300474523_"  style="overflow:visible;"/>
						</clipPath>
						<path style="clip-path:url(#SVGID_00000083053914938961447210000011151925489338325694_);fill:#FFFFFF;" d="M300.983,179.997
							c-0.433,0-0.815,0.196-1.077,0.499c0.214-0.127,0.46-0.205,0.727-0.205c0.789,0,1.429,0.64,1.429,1.429
							c0,0.358-0.136,0.68-0.352,0.931c0.419-0.249,0.703-0.702,0.703-1.224C302.413,180.637,301.772,179.997,300.983,179.997"/>
					</g>
				</g>
				<path style="fill:#EFEFEF;" d="M299.449,189.095c0,1.355-1.099,2.453-2.453,2.453c-1.356,0-2.454-1.098-2.454-2.453
					c0-1.355,1.098-2.454,2.454-2.454C298.35,186.641,299.449,187.74,299.449,189.095"/>
				<path style="fill:#EA4484;" d="M298.749,188.995c0,1.024-0.829,1.854-1.853,1.854c-1.023,0-1.853-0.83-1.853-1.854
					c0-1.023,0.83-1.853,1.853-1.853C297.92,187.142,298.749,187.972,298.749,188.995"/>
				<path style="opacity:0.28;fill:#FFFFFF;" d="M298.253,188.817c0,0.9-0.73,1.63-1.631,1.63c-0.9,0-1.63-0.73-1.63-1.63
					c0-0.901,0.73-1.63,1.63-1.63C297.523,187.187,298.253,187.916,298.253,188.817"/>
				<g style="opacity:0.61;">
					<g>
						<defs>
							
								<rect id="SVGID_00000052106261480919795790000015509381042870152883_" x="295.674" y="187.251" width="2.507" height="2.654"/>
						</defs>
						<clipPath id="SVGID_00000093137837991199920430000000951263713723117752_">
							<use xlink:href="#SVGID_00000052106261480919795790000015509381042870152883_"  style="overflow:visible;"/>
						</clipPath>
						<path style="clip-path:url(#SVGID_00000093137837991199920430000000951263713723117752_);fill:#FFFFFF;" d="M296.751,187.25
							c-0.432,0-0.814,0.196-1.076,0.499c0.213-0.127,0.46-0.205,0.726-0.205c0.79,0,1.43,0.64,1.43,1.43
							c0,0.357-0.136,0.68-0.352,0.93c0.418-0.249,0.702-0.701,0.702-1.224C298.181,187.89,297.541,187.25,296.751,187.25"/>
					</g>
				</g>
				<path style="fill:#EFEFEF;" d="M295.186,196.791c0,1.355-1.099,2.454-2.454,2.454c-1.355,0-2.453-1.099-2.453-2.454
					s1.098-2.453,2.453-2.453C294.087,194.338,295.186,195.436,295.186,196.791"/>
				<path style="fill:#EA4484;" d="M294.486,196.692c0,1.023-0.83,1.853-1.854,1.853c-1.023,0-1.853-0.83-1.853-1.853
					c0-1.023,0.83-1.853,1.853-1.853C293.656,194.839,294.486,195.669,294.486,196.692"/>
				<path style="opacity:0.28;fill:#FFFFFF;" d="M293.988,196.514c0,0.9-0.729,1.63-1.63,1.63c-0.9,0-1.631-0.73-1.631-1.63
					c0-0.9,0.731-1.63,1.631-1.63C293.259,194.884,293.988,195.614,293.988,196.514"/>
				<g style="opacity:0.61;">
					<g>
						<defs>
							
								<rect id="SVGID_00000122710946746499666570000005299116160501159072_" x="291.41" y="194.947" width="2.507" height="2.655"/>
						</defs>
						<clipPath id="SVGID_00000069384122121986547250000012828708194461707675_">
							<use xlink:href="#SVGID_00000122710946746499666570000005299116160501159072_"  style="overflow:visible;"/>
						</clipPath>
						<path style="clip-path:url(#SVGID_00000069384122121986547250000012828708194461707675_);fill:#FFFFFF;" d="M292.488,194.947
							c-0.433,0-0.815,0.196-1.077,0.499c0.214-0.127,0.46-0.205,0.727-0.205c0.789,0,1.429,0.64,1.429,1.43
							c0,0.357-0.136,0.68-0.352,0.93c0.419-0.249,0.703-0.701,0.703-1.224C293.918,195.587,293.276,194.947,292.488,194.947"/>
					</g>
				</g>
			</g>
			<g>
				<path style="fill:#CCC8D8;" d="M145.878,264.683c-5.669,0-10.308,4.072-10.308,9.05v124.188c0,4.978,4.639,9.05,10.308,9.05
					h98.083V264.683H145.878z"/>
				<g style="opacity:0.46;">
					<path style="fill:#101A46;" d="M219.352,300.31h-78.106v-27.466h78.106V300.31z M142.246,299.31h76.106v-25.466h-76.106V299.31
						z"/>
				</g>
				<g style="opacity:0.46;">
					<path style="fill:#101A46;" d="M219.352,331.969h-78.106v-27.465h78.106V331.969z M142.246,330.969h76.106v-25.465h-76.106
						V330.969z"/>
				</g>
				<g style="opacity:0.46;">
					<path style="fill:#101A46;" d="M219.352,363.63h-78.106v-27.466h78.106V363.63z M142.246,362.63h76.106v-25.466h-76.106V362.63
						z"/>
				</g>
				<g style="opacity:0.46;">
					<path style="fill:#101A46;" d="M219.352,395.289h-78.106v-27.466h78.106V395.289z M142.246,394.289h76.106v-25.466h-76.106
						V394.289z"/>
				</g>
			</g>
			<g>
				<path style="fill:#EFEFEF;" d="M241.252,218.302c-6.6,0-12,5.4-12,12v176.38c0,0.159,0.13,0.289,0.289,0.289h125.907V218.302
					H241.252z"/>
				<path style="fill:#CCC8D8;" d="M404.158,218.302h-59.71v188.669h59.71c6.601,0,12-5.399,12-12V230.302
					C416.158,223.702,410.759,218.302,404.158,218.302"/>
				<rect x="236.724" y="255.28" style="fill:#CCC8D8;" width="100.217" height="18.807"/>
				<rect x="236.724" y="327.337" style="fill:#CCC8D8;" width="100.217" height="17.72"/>
				<rect x="236.724" y="352.203" style="fill:#CCC8D8;" width="100.217" height="17.721"/>
				<rect x="236.724" y="377.069" style="fill:#CCC8D8;" width="100.217" height="17.72"/>
				<g style="opacity:0.46;">
					<rect x="229.252" y="239.669" style="fill:#101A46;" width="186.906" height="1"/>
				</g>
				<g style="opacity:0.46;">
					<rect x="229.252" y="243.714" style="fill:#101A46;" width="186.906" height="1"/>
				</g>
				<g>
					<polygon style="fill:#101A46;" points="394.868,257.256 394.868,275.639 437.449,275.639 437.449,268.15 					"/>
					<polygon style="opacity:0.32;fill:#101A46;" points="358.535,257.256 358.535,271.852 365.835,271.852 391.733,257.256 					
						"/>
					<polygon style="fill:#CCC8D8;" points="365.835,271.852 394.868,271.852 394.868,257.256 391.733,257.256 					"/>
					<polygon style="fill:#101A46;" points="358.535,257.256 358.535,275.639 401.117,275.639 401.117,268.15 					"/>
					<rect x="401.117" y="272.618" style="opacity:0.22;fill:#FFFFFF;" width="36.332" height="3.021"/>
				</g>
				<g>
					<rect x="236.724" y="290.407" style="fill:#CCC8D8;" width="100.217" height="18.806"/>
					<polygon style="fill:#101A46;" points="336.942,290.407 336.942,309.213 318.484,309.213 318.484,301.512 					"/>
					<polygon style="fill:#101A46;" points="236.725,290.407 236.725,309.213 218.267,309.213 218.267,301.427 					"/>
					<rect x="218.266" y="301.513" style="fill:#101A46;" width="100.217" height="7.7"/>
					<g>
						<g style="opacity:0.32;">
							<g>
								<defs>
									
										<rect id="SVGID_00000146471131447161309900000015632410013970432646_" x="223.01" y="308.15" width="99.257" height="69.788"/>
								</defs>
								<clipPath id="SVGID_00000039122101241457451830000007076692589516960898_">
									<use xlink:href="#SVGID_00000146471131447161309900000015632410013970432646_"  style="overflow:visible;"/>
								</clipPath>
								<path style="clip-path:url(#SVGID_00000039122101241457451830000007076692589516960898_);fill:#101A46;" d="M226.139,308.15
									l96.128,1.062c0,0-8.298,26.616-1.489,67.857l-93.283,0.869C218.267,344.065,226.139,308.15,226.139,308.15"/>
							</g>
						</g>
						<path style="fill:#FFFFFF;" d="M327.712,295.959h-90.987c0,0-8.139-0.916-13.799,5.553c0,0-7.36,60.899,2.182,73.556
							l90.99-1.054c0,0-6.938-10.119-0.475-72.502h2.86L327.712,295.959z"/>
						<g>
							
								<rect x="233.447" y="317.479" transform="matrix(0.9997 -0.0236 0.0236 0.9997 -7.4272 5.9468)" style="fill:#101A46;" width="29.713" height="0.5"/>
						</g>
						<g>
							
								<rect x="233.368" y="314.089" transform="matrix(0.9997 -0.0234 0.0234 0.9997 -7.29 5.8965)" style="fill:#101A46;" width="29.713" height="0.5"/>
						</g>
						<g>
							
								<rect x="233.247" y="308.834" transform="matrix(0.9997 -0.0236 0.0236 0.9997 -7.2233 5.9396)" style="fill:#101A46;" width="29.712" height="0.5"/>
						</g>
						
							<rect x="236.679" y="314.533" transform="matrix(0.9997 -0.0233 0.0233 0.9997 -7.5013 5.6753)" style="fill:#EA4484;" width="6.701" height="21.043"/>
						
							<rect x="245.025" y="309.081" transform="matrix(0.9997 -0.0233 0.0233 0.9997 -7.4334 5.8688)" style="fill:#39AFE6;" width="6.702" height="26.3"/>
						
							<rect x="253.533" y="317.533" transform="matrix(0.9997 -0.0231 0.0231 0.9997 -7.4804 6.0295)" style="fill:#FDB126;" width="6.701" height="17.651"/>
						<g>
							<path style="fill:#101A46;" d="M230.435,310.361l-0.046-1.936l1.938-0.045l0.045,1.936L230.435,310.361z M230.9,308.913
								l0.023,0.936l0.937-0.022l-0.022-0.936L230.9,308.913z"/>
						</g>
						<g>
							<path style="fill:#101A46;" d="M230.559,315.719l-0.045-1.937l1.938-0.045l0.044,1.936L230.559,315.719z M231.025,314.271
								l0.022,0.936l0.937-0.021l-0.021-0.937L231.025,314.271z"/>
						</g>
						<g>
							<path style="fill:#101A46;" d="M230.638,319.109l-0.045-1.936l1.938-0.045l0.044,1.937L230.638,319.109z M231.105,317.661
								l0.022,0.937l0.937-0.022l-0.021-0.936L231.105,317.661z"/>
						</g>
						<g>
							
								<rect x="290.294" y="319.959" transform="matrix(0.0033 -1 1 0.0033 -43.5617 622.5947)" style="fill:#101A46;" width="0.5" height="26.383"/>
						</g>
						<g>
							
								<rect x="286.958" y="321.735" transform="matrix(0.0033 -1 1 0.0033 -51.9867 624.3311)" style="fill:#101A46;" width="0.5" height="33.021"/>
						</g>
						<g>
							
								<rect x="286.941" y="326.841" transform="matrix(0.0033 -1 1 0.0033 -57.1108 629.4031)" style="fill:#101A46;" width="0.5" height="33.021"/>
						</g>
						<g>
							
								<rect x="286.924" y="331.948" transform="matrix(0.0033 -1 1 0.0033 -62.2337 634.476)" style="fill:#101A46;" width="0.5" height="33.021"/>
						</g>
						<g>
							
								<rect x="286.906" y="337.054" transform="matrix(0.0033 -1 1 0.0033 -67.3568 639.549)" style="fill:#101A46;" width="0.5" height="33.021"/>
						</g>
						<g>
							
								<rect x="286.89" y="342.161" transform="matrix(0.0033 -1 1 0.0033 -72.4806 644.6208)" style="fill:#101A46;" width="0.5" height="33.021"/>
						</g>
						<g>
							
								<rect x="280.15" y="353.968" transform="matrix(0.0033 -1 1 0.0033 -84.2761 642.9562)" style="fill:#101A46;" width="0.5" height="19.573"/>
						</g>
						<g>
							<path style="fill:#101A46;" d="M276.154,333.354l-6.202-0.022l0.02-5.351l6.201,0.021L276.154,333.354z M270.454,332.833
								l5.202,0.019l0.015-4.353l-5.201-0.017L270.454,332.833z"/>
						</g>
					</g>
				</g>
			</g>
		</g>
	</g>
	<g>
		<path style="fill:#F4B985;" d="M112.568,161.98c0-9.973-8.085-18.059-18.059-18.059S76.45,152.007,76.45,161.98
			c0,4.888,1.95,9.315,5.105,12.567l-0.652,1.039c5.442,18.306,22.264,16.327,22.264,16.327
			C117.515,186.471,112.568,161.98,112.568,161.98z"/>
		<path style="fill:#F4B985;" d="M80.408,177.565c0,0,4.453,19.79,3.463,21.769c0,0,15.337,1.484,18.801-0.99l-2.474-18.306
			C100.199,180.039,81.398,169.154,80.408,177.565z"/>
		<path style="opacity:0.22;fill:#EA4484;" d="M102.42,196.473l-0.385-2.849c-5.265-1.114-9.834-4.078-13.859-7.905
			C89.722,192.247,95.466,196.95,102.42,196.473z"/>
		<path style="fill:#101A46;" d="M105.641,399.71v17.811c0,0,36.117,5.442,39.086,0.495c2.968-4.948-18.801-8.411-18.801-8.411
			s-7.916,0-8.411-9.895H105.641z"/>
		<path style="fill:#F4B985;" d="M112.102,175.199l3.592-0.599l-2.993-9.279C112.701,165.32,108.51,174.301,112.102,175.199z"/>
		<g style="opacity:0.68;">
			<path style="fill:#101A46;" d="M111.159,184.078c-3.529-0.321-5.699-4.583-5.79-4.765l0.895-0.448
				c0.02,0.039,2.014,3.946,4.986,4.216L111.159,184.078z"/>
		</g>
		<path style="fill:#101A46;" d="M109.109,166.817c0,0.909-0.469,1.646-1.048,1.646c-0.579,0-1.048-0.737-1.048-1.646
			c0-0.909,0.469-1.646,1.048-1.646C108.64,165.171,109.109,165.908,109.109,166.817z"/>
		<path style="fill:#101A46;" d="M88.155,163.524c0,0,2.694,5.987,2.993,9.579c0.299,3.592,4.789,6.885,4.49,2.694
			s-2.095-18.559,3.891-18.559s18.858-4.191,16.763-8.98c0,0-2.395-1.197-3.293,0.599c-0.898,1.796,2.395-8.381-1.796-9.279
			c-4.191-0.898-2.395,4.79-2.395,4.79s-21.852-12.273-32.329,9.579l-2.694-0.599l0.599,2.395l-2.395,1.796l1.796,0.898
			c0,0,3.293,27.838,8.681,29.635c0,0,2.993-5.987,2.993-12.572c0,0-5.687-9.579-1.197-11.974H88.155z"/>
		<path style="fill:#101A46;" d="M103.721,163.225c0,0,3.293-5.089,5.089-3.891c1.796,1.197,0.299,1.796,0.299,1.796
			L103.721,163.225z"/>
		<path style="fill:#F4B985;" d="M89.447,164.334c0,0-6.026-4.42-6.829,2.009c-0.803,6.429,6.428,12.455,8.034,9.643
			C92.259,173.173,89.447,164.334,89.447,164.334z"/>
		<path style="fill:#101A46;" d="M80.408,280.474c0,0-0.989,14.843,9.4,27.211l10.885,90.54c0,0,14.348,5.442,20.78,2.474
			c0,0-0.495-110.331-1.484-118.247C118.999,274.537,81.893,273.548,80.408,280.474z"/>
		<path style="fill:#101A46;" d="M89.558,289.897l-30.785,87.197c0,0,11.884,8.1,17.701,9.388
			c5.817,1.287,34.186-71.758,34.186-71.758S92.05,286.24,89.558,289.897z"/>
		<g style="opacity:0.49;">
			<path style="fill:#B6DCFD;" d="M83.377,296.311h-0.273l-0.147-0.229c-3.005-4.675-3.522-13.714-3.542-14.097l-0.028-0.526h7.903
				l0.048,0.446c0.886,8.269-0.514,11.768-1.844,13.248C84.482,296.279,83.487,296.311,83.377,296.311z M80.45,282.459
				c0.154,1.96,0.851,8.909,3.173,12.802c0.266-0.081,0.707-0.29,1.173-0.828c1.146-1.323,2.338-4.477,1.593-11.974H80.45z"/>
		</g>
		<g style="opacity:0.49;">
			<path style="fill:#B6DCFD;" d="M112.571,398.763l-0.996-0.084c0.486-5.829-7.343-111.167-7.422-112.23l0.997-0.074
				C105.473,290.719,113.064,392.854,112.571,398.763z"/>
		</g>
		<g style="opacity:0.39;">
			
				<rect x="90.533" y="300.304" transform="matrix(0.9872 -0.1597 0.1597 0.9872 -52.4615 18.8457)" style="fill:#B6DCFD;" width="1" height="71.102"/>
		</g>
		<path style="fill:#FFFFFF;" d="M83.872,199.334c0,0-4.453,19.79-2.969,32.654c1.484,12.864-4.453,47.497-4.453,47.497
			s35.128,13.358,47.002,0.99c0,0-12.864-73.719-20.78-82.13L83.872,199.334z"/>
		<path style="fill:#F4B985;" d="M98.65,223.706c0,0,17.316,16.327,26.222,14.348c8.906-1.979,27.212-23.253,27.212-23.253
			l-5.442-8.411c0,0-22.264,30.18-42.549,5.442C104.092,211.832,98.155,219.253,98.65,223.706z"/>
		<path style="fill:#FFFFFF;" d="M91.75,202.374c0,0,8.951-6.724,23.659,12.857l-15.662,15.265
			C99.747,230.495,78.605,213.998,91.75,202.374z"/>
		<path style="fill:#FFFFFF;" d="M105.641,417.522c0,0,29.567,4.55,39.086,0.495c0,0,2.257-1.262-5.005-5.731l-6.145,4.469
			l-27.371-1.676L105.641,417.522z"/>
		<g>
			<path style="fill:#101A46;" d="M63.522,374.405l-8.444,15.682c0,0,29.22,21.915,34.179,18.967
				c4.959-2.949-12.566-16.319-12.566-16.319s-6.97-3.753-2.714-12.7L63.522,374.405z"/>
			<path style="fill:#FFFFFF;" d="M84.072,398.316c0,0,0.707,0.428,1.7,1.171c3.095,2.316,8.969,7.691,4.879,12.685
				c0,0-32.377-14.115-35.573-22.085l2.142-1.61l25.249,17.513"/>
			<path style="fill:#FFFFFF;" d="M67.924,388.519c-0.145,1.07-1.13,1.82-2.2,1.675c-1.07-0.145-1.82-1.13-1.675-2.2
				c0.145-1.07,1.13-1.82,2.2-1.675C67.319,386.464,68.069,387.449,67.924,388.519z"/>
		</g>
		<path style="fill:#FFFFFF;" d="M115.702,409.493c0,1.08-0.875,1.955-1.955,1.955c-1.08,0-1.955-0.875-1.955-1.955
			c0-1.08,0.875-1.955,1.955-1.955C114.826,407.538,115.702,408.413,115.702,409.493z"/>
		<g style="opacity:0.49;">
			<path style="fill:#101A46;" d="M99.425,230.877c-14.905-12.593-12.793-21.665-12.696-22.044l0.969,0.246
				c-0.021,0.087-1.998,8.894,12.372,21.035L99.425,230.877z"/>
		</g>
		<g style="opacity:0.49;">
			<path style="fill:#101A46;" d="M107.608,282.163c-17.499,0-29.954-6.204-30.106-6.282l0.404-0.902
				c0.187,0.094,18.907,9.407,42.661,5.004l0.161,0.984C116.14,281.818,111.733,282.163,107.608,282.163z"/>
		</g>
		<path style="opacity:0.22;fill:#EA4484;" d="M88.889,170.693c0,2.005-1,3.631-2.234,3.631c-1.234,0-2.234-1.626-2.234-3.631
			c0-2.005,1-3.631,2.234-3.631C87.889,167.062,88.889,168.687,88.889,170.693z"/>
		<g>
			<g>
				<polygon style="fill:#FFFFFF;" points="123.277,202.255 138.614,216.603 170.278,179.496 143.562,156.737 112.887,192.36 				
					"/>
				<polygon style="fill:#EA4484;" points="118.824,192.36 144.056,163.664 147.025,166.633 121.298,194.834 				"/>
				<polygon style="fill:#6CADE3;" points="124.13,197.667 149.363,168.971 152.331,171.939 126.604,200.14 				"/>
				<polygon style="fill:#FDB126;" points="129.996,203.532 155.228,174.836 158.197,177.805 132.469,206.005 				"/>
				<polygon style="fill:#101A46;" points="135.023,208.559 160.256,179.863 163.224,182.832 137.497,211.033 				"/>
			</g>
			<path style="fill:#F4B985;" d="M144.455,211.067c0,0-3.482-7.462,1.492-10.945c0,0,2.985-6.467,3.482-3.98
				c0.497,2.487-0.497,7.462-0.497,7.462s5.472-4.975,7.462-7.462c1.99-2.487,3.98-0.995,1.493,4.975
				c-2.488,5.97-4.348,11.902-6.9,14.159C148.435,217.534,142.77,214.348,144.455,211.067z"/>
		</g>
	</g>
</g>
</svg>
